<?xml version="1.0" encoding="UTF-8"?>
<svg xmlns="http://www.w3.org/2000/svg" style="stroke-dasharray:none; shape-rendering:auto; font-family:'Arial'; text-rendering:auto; fill-opacity:1; color-interpolation:auto; color-rendering:auto; font-size:12; fill:black; stroke:black; image-rendering:auto; stroke-miterlimit:10; stroke-linecap:square; stroke-linejoin:miter; font-style:normal; stroke-width:1; stroke-dashoffset:0; font-weight:normal; stroke-opacity:1;" contentScriptType="text/ecmascript" preserveAspectRatio="xMidYMid meet" zoomAndPan="magnify" version="1.0" contentStyleType="text/css" xml:xlink="http://www.w3.org/1999/xlink" width="894" height="300"><rect x="10" y="10" width="831" height="290" ry="0" rx="0" style="stroke:#000000; fill:#FFFFFF" /><rect x="40" y="155" width="801" height="145" ry="0" rx="0" style="stroke:#000000; fill:#C0C0C0" /><g componentSequence="3"><text x="-227" y="48" transform="rotate(270)" text-anchor="middle" style="font-weight:bold;font-size:10px;stroke:none; fill:#434343"><tspan dy="14" x="-227">Custos</tspan></text></g><rect x="40" y="10" width="801" height="145" ry="0" rx="0" style="stroke:#000000; fill:#9F9F9F" /><g componentSequence="2"><text x="-82" y="48" transform="rotate(270)" text-anchor="middle" style="font-weight:bold;font-size:10px;stroke:none; fill:#434343"><tspan dy="14" x="-82">Comercial</tspan></text></g><g componentSequence="1"><text x="-155" y="18" transform="rotate(270)" text-anchor="middle" style="font-weight:bold;font-size:10px;stroke:none; fill:#434343"><tspan dy="14" x="-155">Cotação Produito</tspan></text></g><g sequence="4"><ellipse cx="197" cy="83" rx="17" ry="17" stroke-width="1" style="fill:url(#linearGradient66FF6696FF96B6FFB6_527083969);" stroke="336633" /></g><g sequence="5"><rect x="290" y="199" width="106" height="60" ry="5" rx="5" style="fill:url(#linearGradientF8FBFEEDF5FCDEEDFAD4E7F8E2E5E9_296571996);" stroke="191970" /></g><g componentSequence="5"><text x="343" y="218" text-anchor="middle" style="font-weight:bold;font-size:10px;stroke:none; fill:#333399"><tspan dy="14" x="343">Cotação</tspan></text></g><rect x="60" y="20" width="105" height="55" ry="5" rx="5" style="stroke:none; fill:#FFFFE0" /><g componentSequence="7"><text x="70" y="33" text-anchor="left" style="font-weight:bold;font-size:10px;stroke:none; fill:#000000"><tspan dy="14" x="70">Start</tspan></text></g><path style="fill:none; stroke-width:1; stroke:#000000;" d="M80.0 20.0 L60.0 20.0 L60.0 75.0 L80.0 75.0" /><g sequence="9"><rect x="290" y="46" width="106" height="76" ry="5" rx="5" style="fill:url(#linearGradientF8FBFEEDF5FCDEEDFAD4E7F8E2E5E9_361939633);" stroke="191970" /></g><g componentSequence="9"><text x="343" y="61" text-anchor="middle" style="font-weight:bold;font-size:10px;stroke:none; fill:#333399"><tspan dy="14" x="343">Negociar</tspan><tspan dy="14" x="343">Cliente</tspan></text></g><g sequence="11"><polygon points=" 520 60 550 30 580 60 550 90 520 60" style="fill:url(#linearGradientFAFBFCFFFFCC_1351638631);" stroke="000000" /></g><g componentSequence="11"><text x="550" y="100" text-anchor="middle" style="font-weight:bold;font-size:10px;stroke:none; fill:#333399"><tspan dy="14" x="550">Aprova</tspan><tspan dy="14" x="550">?</tspan></text></g><g sequence="14"><ellipse cx="737" cy="37" rx="17" ry="17" stroke-width="3" style="fill:url(#linearGradientFF6666FF9696FFB6B6_452903189);" stroke="993333" /></g><g sequence="16"><ellipse cx="737" cy="127" rx="17" ry="17" stroke-width="3" style="fill:url(#linearGradientFF6666FF9696FFB6B6_1628072354);" stroke="993333" /></g><rect x="789" y="10" width="105" height="55" ry="5" rx="5" style="stroke:none; fill:#FFFFE0" /><g componentSequence="18"><text x="799" y="23" text-anchor="left" style="font-weight:bold;font-size:10px;stroke:none; fill:#000000"><tspan dy="14" x="799">Reprovado</tspan></text></g><path style="fill:none; stroke-width:1; stroke:#000000;" d="M809.0 10.0 L789.0 10.0 L789.0 65.0 L809.0 65.0" /><rect x="730" y="180" width="105" height="55" ry="5" rx="5" style="stroke:none; fill:#FFFFE0" /><g componentSequence="20"><text x="740" y="193" text-anchor="left" style="font-weight:bold;font-size:10px;stroke:none; fill:#000000"><tspan dy="14" x="740">Aprovado</tspan></text></g><path style="fill:none; stroke-width:1; stroke:#000000;" d="M750.0 180.0 L730.0 180.0 L730.0 235.0 L750.0 235.0" /><g componentSequence="6"><text x="207" y="211" style="font-size:10px;font-weight:none;stroke:none; fill:#333399" text-anchor="left" /></g><g componentSequence="8"><text x="184" y="56" style="font-size:10px;font-weight:none;stroke:none; fill:#333399" text-anchor="left" /></g><g componentSequence="10"><text x="353" y="160" style="font-size:10px;font-weight:none;stroke:none; fill:#333399" text-anchor="left" /></g><g componentSequence="12"><text x="468" y="84" style="font-size:10px;font-weight:none;stroke:none; fill:#333399" text-anchor="left" /></g><g componentSequence="13"><text x="440" y="200" style="font-size:10px;font-weight:none;stroke:none; fill:#333399" text-anchor="left"><tspan dy="14" x="440">Nova Cotação</tspan></text></g><g componentSequence="15"><text x="660" y="59" style="font-size:10px;font-weight:none;stroke:none; fill:#333399" text-anchor="left"><tspan dy="14" x="660">Não</tspan></text></g><g componentSequence="17"><text x="660" y="120" style="font-size:10px;font-weight:none;stroke:none; fill:#333399" text-anchor="left"><tspan dy="14" x="660">Sim</tspan></text></g><g componentSequence="19"><text x="782" y="37" style="font-size:10px;font-weight:none;stroke:none; fill:#333399" text-anchor="left" /></g><g componentSequence="21"><text x="767" y="162" style="font-size:10px;font-weight:none;stroke:none; fill:#333399" text-anchor="left" /></g><path style="fill:none; stroke:#000000;stroke-width:1" d="M197.0 101.0 L197.0 229.0 L289.0 229.0" /><polygon style="fill:#000000; stroke:#000000;" points=" 279 224 289 229 279 234 281 229" /><path style="fill:none; stroke:#000000;stroke-dasharray:2" d="M165.0 48.0 L167.0 48.0 L186.0 70.0" /><path style="fill:none; stroke:#000000;stroke-width:1" d="M343.0 198.0 L343.0 122.0" /><polygon style="fill:#000000; stroke:#000000;" points=" 338 132 343 122 348 132 343 130" /><path style="fill:none; stroke:#000000;stroke-width:1" d="M550.0 138.0 L550.0 228.0 L396.0 228.0" /><polygon style="fill:#000000; stroke:#000000;" points=" 406 233 396 228 406 223 404 228" /><path style="fill:none; stroke:#000000;stroke-width:1" d="M396.0 84.0 L519.0 84.0" /><polygon style="fill:#000000; stroke:#000000;" points=" 509 79 519 84 509 89 511 84" /><path style="fill:none; stroke:#000000;stroke-width:1" d="M580.0 76.0 L720.0 41.0" /><polygon style="fill:#000000; stroke:#000000;" points=" 709 39 720 41 712 48 712 43" /><path style="fill:none; stroke:#000000;stroke-width:1" d="M580.0 91.0 L720.0 123.0" /><polygon style="fill:#000000; stroke:#000000;" points=" 711 116 720 123 709 126 712 121" /><path style="fill:none; stroke:#000000;stroke-dasharray:2" d="M788.0 37.0 L755.0 37.0" /><path style="fill:none; stroke:#000000;stroke-dasharray:2" d="M766.0 179.0 L745.0 142.0" /><defs><linearGradient xmlns:xlink="http://www.w3.org/1999/xlink" xlink:href="#linearGradient66FF6696FF96B6FFB6" id="linearGradient66FF6696FF96B6FFB6_527083969" x1="0" y1="66.0" x2="0" y2="101.0" gradientUnits="userSpaceOnUse" xlink:type="simple" xlink:actuate="onLoad" xlink:show="other" /><linearGradient id="linearGradient66FF6696FF96B6FFB6"><stop style="stop-color:#66FF66;stop-opacity:1;" offset="0.0" id="stop66FF66" /><stop style="stop-color:#96FF96;stop-opacity:1;" offset="0.5" id="stop96FF96" /><stop style="stop-color:#B6FFB6;stop-opacity:1;" offset="1.0" id="stopB6FFB6" /></linearGradient><linearGradient xmlns:xlink="http://www.w3.org/1999/xlink" xlink:href="#linearGradientF8FBFEEDF5FCDEEDFAD4E7F8E2E5E9" id="linearGradientF8FBFEEDF5FCDEEDFAD4E7F8E2E5E9_296571996" x1="0" y1="199.0" x2="0" y2="305.0" gradientUnits="userSpaceOnUse" xlink:type="simple" xlink:actuate="onLoad" xlink:show="other" /><linearGradient id="linearGradientF8FBFEEDF5FCDEEDFAD4E7F8E2E5E9"><stop style="stop-color:#F8FBFE;stop-opacity:1;" offset="0.0" id="stopF8FBFE" /><stop style="stop-color:#EDF5FC;stop-opacity:1;" offset="0.25" id="stopEDF5FC" /><stop style="stop-color:#DEEDFA;stop-opacity:1;" offset="0.5" id="stopDEEDFA" /><stop style="stop-color:#D4E7F8;stop-opacity:1;" offset="0.75" id="stopD4E7F8" /><stop style="stop-color:#E2E5E9;stop-opacity:1;" offset="1.0" id="stopE2E5E9" /></linearGradient><linearGradient xmlns:xlink="http://www.w3.org/1999/xlink" xlink:href="#linearGradientF8FBFEEDF5FCDEEDFAD4E7F8E2E5E9" id="linearGradientF8FBFEEDF5FCDEEDFAD4E7F8E2E5E9_361939633" x1="0" y1="46.0" x2="0" y2="152.0" gradientUnits="userSpaceOnUse" xlink:type="simple" xlink:actuate="onLoad" xlink:show="other" /><linearGradient xmlns:xlink="http://www.w3.org/1999/xlink" xlink:href="#linearGradientFAFBFCFFFFCC" id="linearGradientFAFBFCFFFFCC_1351638631" x1="0" y1="30.0" x2="0" y2="90.0" gradientUnits="userSpaceOnUse" xlink:type="simple" xlink:actuate="onLoad" xlink:show="other" /><linearGradient id="linearGradientFAFBFCFFFFCC"><stop style="stop-color:#FAFBFC;stop-opacity:1;" offset="0.0" id="stopFAFBFC" /><stop style="stop-color:#FFFFCC;stop-opacity:1;" offset="1.0" id="stopFFFFCC" /></linearGradient><linearGradient xmlns:xlink="http://www.w3.org/1999/xlink" xlink:href="#linearGradientFF6666FF9696FFB6B6" id="linearGradientFF6666FF9696FFB6B6_452903189" x1="0" y1="20.0" x2="0" y2="55.0" gradientUnits="userSpaceOnUse" xlink:type="simple" xlink:actuate="onLoad" xlink:show="other" /><linearGradient id="linearGradientFF6666FF9696FFB6B6"><stop style="stop-color:#FF6666;stop-opacity:1;" offset="0.0" id="stopFF6666" /><stop style="stop-color:#FF9696;stop-opacity:1;" offset="0.5" id="stopFF9696" /><stop style="stop-color:#FFB6B6;stop-opacity:1;" offset="1.0" id="stopFFB6B6" /></linearGradient><linearGradient xmlns:xlink="http://www.w3.org/1999/xlink" xlink:href="#linearGradientFF6666FF9696FFB6B6" id="linearGradientFF6666FF9696FFB6B6_1628072354" x1="0" y1="110.0" x2="0" y2="145.0" gradientUnits="userSpaceOnUse" xlink:type="simple" xlink:actuate="onLoad" xlink:show="other" /></defs></svg>
